<svg id="Layer_1" data-name="Layer 1" xmlns="http://www.w3.org/2000/svg" viewBox="0 0 305.89 58.19"><defs><style>.cls-1{fill:#70faf7;}.cls-2{fill:#fff;}</style></defs><title>emanate logo</title><path class="cls-1" d="M297.07,268.32a29.09,29.09,0,1,0,29.09,29.09A29.13,29.13,0,0,0,297.07,268.32Zm0,2.57a26.53,26.53,0,1,1-26.53,26.53A26.56,26.56,0,0,1,297.07,270.88Z" transform="translate(-267.98 -268.32)"/><path class="cls-2" d="M346.49,300.89c0.36,3.07,3.28,5.1,6.66,5.1a5.82,5.82,0,0,0,5.25-2.7h8.84a16.93,16.93,0,0,1-5.88,7.38,14,14,0,0,1-8.22,2.6A15.31,15.31,0,0,1,337.86,298c0-8.06,6.34-15.5,15.13-15.5a14.76,14.76,0,0,1,10.92,4.58c3.64,3.9,4.73,8.53,4.06,13.83H346.49Zm13-6.55c-0.21-1.35-2-4.58-6.45-4.58s-6.24,3.22-6.45,4.58h12.9Z" transform="translate(-267.98 -268.32)"/><path class="cls-2" d="M372.75,283.47h8.06v3.07a6.78,6.78,0,0,1,1.77-2,9.58,9.58,0,0,1,6.29-2,8.81,8.81,0,0,1,6.6,2.76,9.76,9.76,0,0,1,1.72,2.39,11.83,11.83,0,0,1,2.08-2.5,10.24,10.24,0,0,1,7.07-2.65,10.45,10.45,0,0,1,7.59,2.91c2.7,2.86,3.12,4.78,3.12,11.18v15.76h-8.63V297a10.24,10.24,0,0,0-.57-4.06c-0.52-1.35-1.61-2.34-3.85-2.34-2.39,0-3.59,1.09-4.16,2.39a8.26,8.26,0,0,0-.62,3.59v15.76h-8.63v-15.7a9.89,9.89,0,0,0-.52-3.59,3.73,3.73,0,0,0-3.8-2.44,4.19,4.19,0,0,0-4.26,2.55,9.47,9.47,0,0,0-.62,3.85v15.34h-8.63V283.47Z" transform="translate(-267.98 -268.32)"/><path class="cls-2" d="M453.2,312.33h-8.63v-3.12c-1.56,2.81-5.15,4.11-8.53,4.11-9.15,0-14.51-7.18-14.51-15.44,0-9.46,6.81-15.39,14.51-15.39,4.73,0,7.38,2.29,8.53,4.06v-3.07h8.63v28.86Zm-23-14.3c0,2.65,2,7.23,7.18,7.23a6.67,6.67,0,0,0,6-3.22,8,8,0,0,0,1.2-3.69,7.42,7.42,0,0,0-.73-3.8,6.85,6.85,0,0,0-6.55-4c-4.94,0-7.12,4.16-7.12,7.44V298Z" transform="translate(-267.98 -268.32)"/><path class="cls-2" d="M459.23,283.47h8.06v3.07c1-1.4,2.81-4.06,8-4.06,9.72,0,10.71,7.9,10.71,11.8v18h-8.63V296.58c0-3.17-.68-6-4.52-6-4.26,0-4.94,3.07-4.94,6v15.7h-8.63V283.47Z" transform="translate(-267.98 -268.32)"/><path class="cls-2" d="M522.15,312.33h-8.63v-3.12c-1.56,2.81-5.15,4.11-8.53,4.11-9.15,0-14.51-7.18-14.51-15.44,0-9.46,6.81-15.39,14.51-15.39,4.73,0,7.38,2.29,8.53,4.06v-3.07h8.63v28.86Zm-23-14.3c0,2.65,2,7.23,7.18,7.23a6.67,6.67,0,0,0,6-3.22,7.94,7.94,0,0,0,1.2-3.69,7.4,7.4,0,0,0-.73-3.8,6.85,6.85,0,0,0-6.55-4c-4.94,0-7.12,4.16-7.12,7.44V298Z" transform="translate(-267.98 -268.32)"/><path class="cls-2" d="M529.89,290h-4.26v-6.55h4.26v-9.62h8.63v9.62h4.16V290h-4.16v22.31h-8.63V290Z" transform="translate(-267.98 -268.32)"/><path class="cls-2" d="M552.2,300.89c0.36,3.07,3.28,5.1,6.66,5.1a5.82,5.82,0,0,0,5.25-2.7H573a16.94,16.94,0,0,1-5.88,7.38,14,14,0,0,1-8.22,2.6A15.31,15.31,0,0,1,543.57,298c0-8.06,6.34-15.5,15.13-15.5a14.76,14.76,0,0,1,10.92,4.58c3.64,3.9,4.73,8.53,4.06,13.83H552.2Zm13-6.55c-0.21-1.35-2-4.58-6.45-4.58s-6.24,3.22-6.45,4.58h12.9Z" transform="translate(-267.98 -268.32)"/><polygon class="cls-1" points="16.48 18.46 16.48 27.55 18.94 27.55 18.94 23.69 22.1 26.02 25.27 23.69 25.27 34.48 16.48 29.25 16.48 39.25 18.94 39.25 18.94 34.26 27.72 39.5 27.72 18.46 22.1 22.95 16.48 18.46"/><path class="cls-1" d="M309.39,296.46l-0.09-.11a1.18,1.18,0,0,1-.16-1.67l0.06-.11a5.29,5.29,0,1,0-9.1,0l0.09,0.16a1.18,1.18,0,0,1-.16,1.67l0,0a6.38,6.38,0,0,0-2.08,4.68,6.75,6.75,0,0,0,13.5,0A6.54,6.54,0,0,0,309.39,296.46Zm-4.73-7a2.44,2.44,0,0,1,.18,4.87h-0.18A2.44,2.44,0,1,1,304.66,289.41Zm0,15.2a3.64,3.64,0,0,1-3.53-3.65,3.53,3.53,0,0,1,7.06,0A3.64,3.64,0,0,1,304.66,304.61Z" transform="translate(-267.98 -268.32)"/></svg>