<svg width="12px" height="13px" viewBox="0 0 12 13" version="1.1" xmlns="http://www.w3.org/2000/svg" xmlns:xlink="http://www.w3.org/1999/xlink">
    <g id="Page-1" stroke="none" stroke-width="1" fill="none" fill-rule="evenodd">
        <g id="2-collaboration" transform="translate(-465.000000, -681.000000)" fill="#70F9F7">
            <g id="Left-Content" transform="translate(379.000000, 334.000000)">
                <path d="M97.7984569,352.330131 C97.4594762,352.780537 96.8207695,352.873563 96.367296,352.538671 L93.1246942,350.117965 L93.1246942,358.367585 C93.1244898,358.932076 92.6669272,359.389639 92.1024365,359.389843 L91.8985982,359.389843 C91.3341075,359.389639 90.8765449,358.932076 90.8763405,358.367585 L90.8763405,350.117965 L87.6337387,352.538671 C87.1806741,352.876016 86.5399229,352.782377 86.2025778,352.329517 C85.8654372,351.876862 85.9586671,351.236519 86.4111184,350.89897 L91.3731577,347.198396 C91.5536885,347.064685 91.7734739,346.994967 91.9981662,347.000283 L91.9981662,347.000078 L92.0004151,347.000283 L92.0028685,347.000078 L92.0028685,347.000283 C92.2273564,346.994967 92.4473462,347.064685 92.627877,347.198396 L97.5899163,350.89897 C98.0409364,351.237542 98.1341664,351.876862 97.7984569,352.330131" id="Fill-1"></path>
            </g>
        </g>
    </g>
</svg>